<svg width="0" height="0" class="hidden">
    <symbol xmlns="http://www.w3.org/2000/svg" viewBox="0 0 23 23" id="ball">
        <path d="M11.1631 22.3C5.00595 22.3 0 17.3028 0 11.1544C0 4.99722 5.00595 0 11.1631 0C17.3202 0 22.3262 4.99722 22.3262 11.1456C22.3262 17.2941 17.3202 22.3 11.1631 22.3ZM20.5732 12.6718C20.2505 12.5672 17.6255 11.791 14.6341 12.2619C15.8812 15.6806 16.3871 18.4714 16.483 19.047C18.6284 17.608 20.1546 15.3231 20.5732 12.6718ZM14.887 19.9278C14.7475 19.0906 14.1893 16.1777 12.855 12.7067C12.8375 12.7154 12.8114 12.7242 12.7939 12.7242C7.41299 14.5992 5.48561 18.3232 5.31119 18.672C6.9246 19.9278 8.95663 20.6779 11.1631 20.6779C12.48 20.6866 13.7446 20.4162 14.887 19.9278ZM4.0815 17.5295C4.29953 17.1632 6.91588 12.8375 11.8346 11.2416C11.9567 11.198 12.0875 11.1631 12.2096 11.1282C11.9742 10.5875 11.7125 10.0468 11.4334 9.51478C6.67169 10.9363 2.04947 10.8753 1.63086 10.8666C1.63086 10.9625 1.62214 11.0584 1.62214 11.1544C1.63086 13.605 2.5553 15.8376 4.0815 17.5295ZM1.83144 9.20954C2.25878 9.21826 6.1833 9.23571 10.6485 8.04963C9.07001 5.24142 7.36066 2.8867 7.11647 2.54658C4.43907 3.80242 2.45065 6.26179 1.83144 9.20954ZM8.93047 1.90121C9.1921 2.25006 10.9276 4.60477 12.4887 7.47403C15.8812 6.20074 17.3115 4.28209 17.4859 4.0379C15.8027 2.54658 13.5876 1.63958 11.1631 1.63958C10.3956 1.63958 9.64561 1.73551 8.93047 1.90121ZM18.5412 5.13676C18.3406 5.40712 16.7446 7.45659 13.2213 8.89558C13.4393 9.34908 13.6573 9.8113 13.8579 10.2735C13.9277 10.4392 13.9975 10.6049 14.0672 10.7619C17.2417 10.3607 20.3901 11.0061 20.704 11.0671C20.6779 8.82581 19.8755 6.7589 18.5412 5.13676Z"
        ></path>
    </symbol>
    <symbol xmlns="http://www.w3.org/2000/svg" viewBox="0 0 21 13" id="be">
        <path d="M5.98062 0C6.57412 0 7.12196 0.0456537 7.62416 0.182615C8.12635 0.273922 8.53723 0.456537 8.90246 0.684806C9.26769 0.913074 9.54161 1.23265 9.72423 1.64353C9.90684 2.05442 9.99815 2.55661 9.99815 3.10445C9.99815 3.7436 9.86119 4.29145 9.54161 4.70233C9.26769 5.11322 8.81115 5.47845 8.26331 5.75237C9.03942 5.98064 9.63292 6.39152 9.99815 6.93936C10.3634 7.48721 10.5916 8.17201 10.5916 8.94813C10.5916 9.58728 10.4547 10.1351 10.2264 10.5917C9.99815 11.0482 9.63292 11.4591 9.22204 11.733C8.81115 12.0069 8.30896 12.2352 7.76112 12.3722C7.21327 12.5091 6.66543 12.6004 6.11758 12.6004H-1.52588e-05V0H5.98062ZM5.61539 5.11322C6.11758 5.11322 6.52847 4.97625 6.84804 4.74799C7.16762 4.51972 7.30458 4.10883 7.30458 3.60664C7.30458 3.33272 7.25892 3.0588 7.16762 2.87618C7.07631 2.69357 6.93935 2.55661 6.75673 2.41965C6.57412 2.32834 6.3915 2.23703 6.16324 2.19138C5.93497 2.14572 5.7067 2.14572 5.43278 2.14572H2.78486V5.11322H5.61539ZM5.75235 10.5004C6.02628 10.5004 6.3002 10.4547 6.52847 10.409C6.75673 10.3634 6.985 10.2721 7.16762 10.1351C7.35023 9.99816 7.48719 9.8612 7.62416 9.63293C7.71546 9.40466 7.80677 9.13074 7.80677 8.81117C7.80677 8.17201 7.62415 7.71548 7.25892 7.3959C6.8937 7.12198 6.3915 6.98502 5.79801 6.98502H2.78486V10.5004H5.75235ZM14.5635 10.4547C14.9287 10.8199 15.4766 11.0025 16.2071 11.0025C16.7092 11.0025 17.1658 10.8656 17.531 10.6373C17.8962 10.3634 18.1245 10.0895 18.2158 9.81555H20.4528C20.0876 10.9112 19.5398 11.6874 18.8093 12.1895C18.0789 12.6461 17.2114 12.92 16.1614 12.92C15.4309 12.92 14.7918 12.783 14.1983 12.5548C13.6048 12.3265 13.1483 12.0069 12.7374 11.5504C12.3265 11.1395 12.0069 10.6373 11.8243 10.0438C11.596 9.45032 11.5047 8.81117 11.5047 8.08071C11.5047 7.3959 11.596 6.75675 11.8243 6.16325C12.0526 5.56975 12.3721 5.06756 12.783 4.61103C13.1939 4.20014 13.6961 3.83491 14.2439 3.60664C14.8374 3.37837 15.4309 3.24141 16.1614 3.24141C16.9375 3.24141 17.6223 3.37837 18.2158 3.69795C18.8093 4.01753 19.2659 4.38276 19.6311 4.9306C19.9963 5.43279 20.2702 6.02629 20.4528 6.66544C20.5442 7.30459 20.5898 7.94375 20.5442 8.6742H13.9244C13.9244 9.40466 14.1983 10.0895 14.5635 10.4547ZM17.4397 5.66106C17.1201 5.34148 16.6179 5.15887 16.0244 5.15887C15.6136 5.15887 15.294 5.25018 15.0201 5.38714C14.7461 5.5241 14.5635 5.70671 14.3809 5.88933C14.1983 6.07194 14.107 6.30021 14.0613 6.52848C14.0157 6.75675 13.97 6.93936 13.97 7.12198H18.0789C17.9875 6.43717 17.7593 5.98064 17.4397 5.66106ZM13.4222 0.86742H18.5354V2.10007H13.4222V0.86742Z"
        ></path>
    </symbol>
    <symbol xmlns="http://www.w3.org/2000/svg" viewBox="0 0 20 20" id="inst">
        <path d="M6.6672 10C6.6672 8.15912 8.15912 6.6664 10 6.6664C11.8409 6.6664 13.3336 8.15912 13.3336 10C13.3336 11.8409 11.8409 13.3336 10 13.3336C8.15912 13.3336 6.6672 11.8409 6.6672 10ZM4.86512 10C4.86512 12.836 7.164 15.1349 10 15.1349C12.836 15.1349 15.1349 12.836 15.1349 10C15.1349 7.164 12.836 4.86512 10 4.86512C7.164 4.86512 4.86512 7.164 4.86512 10ZM14.1382 4.66152C14.1381 4.89886 14.2084 5.13089 14.3401 5.32829C14.4719 5.52568 14.6593 5.67956 14.8785 5.77047C15.0977 5.86138 15.339 5.88524 15.5718 5.83904C15.8046 5.79283 16.0185 5.67862 16.1863 5.51087C16.3542 5.34311 16.4686 5.12934 16.515 4.89658C16.5614 4.66382 16.5377 4.42253 16.447 4.20322C16.3563 3.98392 16.2025 3.79644 16.0052 3.6645C15.808 3.53257 15.576 3.4621 15.3386 3.462H15.3382C15.02 3.46215 14.715 3.58856 14.49 3.81347C14.265 4.03837 14.1384 4.34339 14.1382 4.66152ZM5.96 18.1398C4.98504 18.0954 4.45512 17.933 4.10296 17.7958C3.63608 17.614 3.30296 17.3975 2.95272 17.0478C2.60248 16.698 2.38568 16.3652 2.20472 15.8983C2.06744 15.5463 1.90504 15.0162 1.86072 14.0413C1.81224 12.9872 1.80256 12.6706 1.80256 10.0001C1.80256 7.3296 1.81304 7.01384 1.86072 5.95888C1.90512 4.98392 2.06872 4.45488 2.20472 4.10184C2.38648 3.63496 2.60296 3.30184 2.95272 2.9516C3.30248 2.60136 3.63528 2.38456 4.10296 2.2036C4.45496 2.06632 4.98504 1.90392 5.96 1.8596C7.01408 1.81112 7.33072 1.80144 10 1.80144C12.6693 1.80144 12.9862 1.81192 14.0412 1.8596C15.0162 1.904 15.5452 2.0676 15.8982 2.2036C16.3651 2.38456 16.6982 2.60184 17.0485 2.9516C17.3987 3.30136 17.6147 3.63496 17.7965 4.10184C17.9338 4.45384 18.0962 4.98392 18.1405 5.95888C18.189 7.01384 18.1986 7.3296 18.1986 10.0001C18.1986 12.6706 18.189 12.9863 18.1405 14.0413C18.0961 15.0162 17.9329 15.5462 17.7965 15.8983C17.6147 16.3652 17.3982 16.6983 17.0485 17.0478C16.6987 17.3972 16.3651 17.614 15.8982 17.7958C15.5462 17.933 15.0162 18.0954 14.0412 18.1398C12.9871 18.1882 12.6705 18.1979 10 18.1979C7.32952 18.1979 7.01376 18.1882 5.96 18.1398ZM5.8772 0.06056C4.81264 0.10904 4.0852 0.27784 3.44992 0.52504C2.792 0.78032 2.23504 1.1228 1.67848 1.67848C1.12192 2.23416 0.78032 2.792 0.52504 3.44992C0.27784 4.0856 0.10904 4.81264 0.06056 5.8772C0.01128 6.94344 0 7.28432 0 10C0 12.7157 0.01128 13.0566 0.06056 14.1228C0.10904 15.1874 0.27784 15.9144 0.52504 16.5501C0.78032 17.2076 1.122 17.7661 1.67848 18.3215C2.23496 18.877 2.792 19.219 3.44992 19.475C4.0864 19.7222 4.81264 19.891 5.8772 19.9394C6.944 19.9879 7.28432 20 10 20C12.7157 20 13.0566 19.9887 14.1228 19.9394C15.1874 19.891 15.9144 19.7222 16.5501 19.475C17.2076 19.219 17.765 18.8772 18.3215 18.3215C18.8781 17.7658 19.219 17.2076 19.475 16.5501C19.7222 15.9144 19.8918 15.1874 19.9394 14.1228C19.9879 13.0558 19.9992 12.7157 19.9992 10C19.9992 7.28432 19.9879 6.94344 19.9394 5.8772C19.891 4.81256 19.7222 4.0852 19.475 3.44992C19.219 2.7924 18.8772 2.23504 18.3215 1.67848C17.7658 1.12192 17.2076 0.78032 16.5509 0.52504C15.9144 0.27784 15.1874 0.10824 14.1236 0.06056C13.0574 0.01208 12.7165 0 10.0008 0C7.28512 0 6.944 0.01128 5.8772 0.06056Z"
        ></path>
    </symbol>
    <symbol xmlns="http://www.w3.org/2000/svg" viewBox="0 0 21 17" id="twit">
        <path d="M18.8068 4.24316C18.8068 4.43478 18.8068 4.62641 18.8068 4.79066C18.8068 10.4573 14.4815 17 6.59742 17C4.16103 17 1.91626 16.2882 0 15.0837C0.328502 15.1111 0.68438 15.1385 1.01288 15.1385C3.01127 15.1385 4.87279 14.4541 6.35105 13.3043C4.46216 13.277 2.8744 12.0177 2.35427 10.3205C2.62802 10.3752 2.8744 10.4026 3.17552 10.4026C3.55878 10.4026 3.94203 10.3478 4.29791 10.2383C2.32689 9.85507 0.848631 8.13043 0.848631 6.04992C0.848631 6.02254 0.848631 6.02254 0.848631 5.99517C1.42351 6.32367 2.08052 6.5153 2.79227 6.54267C1.64251 5.77617 0.876006 4.46216 0.876006 2.95652C0.876006 2.16264 1.09501 1.42351 1.45089 0.793881C3.55878 3.39452 6.7343 5.09179 10.2931 5.28341C10.2109 4.98229 10.1836 4.62641 10.1836 4.29791C10.1836 1.91626 12.0998 0 14.4815 0C15.7134 0 16.8357 0.520129 17.6023 1.34138C18.5878 1.14976 19.4911 0.793881 20.3398 0.301127C20.0113 1.31401 19.3269 2.13527 18.4509 2.68277C19.3269 2.57327 20.1481 2.35427 20.9147 1.99839C20.3671 2.8744 19.6554 3.6409 18.8068 4.24316Z"
        ></path>
    </symbol>

    <symbol xmlns="http://www.w3.org/2000/svg" viewBox="0 0 11 20" id="fb">
        <path d="M6.74159 19.9999V10.8769H9.80381L10.2623 7.32157H6.74159V5.05157C6.74159 4.02223 7.02746 3.32068 8.50367 3.32068L10.3864 3.31981V0.139943C10.0606 0.0967723 8.9431 0 7.64296 0C4.92851 0 3.07014 1.65682 3.07014 4.69964V7.32167H0V10.877H3.07005V20L6.74159 19.9999Z"
        ></path>
    </symbol>
</svg>